<svg width="56" height="55" viewBox="0 0 56 55" fill="none" xmlns="http://www.w3.org/2000/svg">
<g id="file">
<g id="Subtract">
<path d="M24.4932 29.1224V27.8367C24.4932 27.4751 24.7745 27.1939 25.1361 27.1939H39.2789C39.6405 27.1939 39.9218 27.4751 39.9218 27.8367V29.1224C39.9218 29.484 39.6405 29.7653 39.2789 29.7653H25.1361C24.7745 29.7653 24.4932 29.484 24.4932 29.1224Z" fill="white"/>
<path d="M25.1361 32.3367H39.2789C39.6405 32.3367 39.9218 32.618 39.9218 32.9796V34.2653C39.9218 34.6269 39.6405 34.9081 39.2789 34.9081H25.1361C24.7745 34.9081 24.4932 34.6269 24.4932 34.2653V32.9796C24.4932 32.618 24.7745 32.3367 25.1361 32.3367Z" fill="white"/>
<path d="M25.1361 37.4796H39.2789C39.6405 37.4796 39.9218 37.7608 39.9218 38.1224V39.4081C39.9218 39.7698 39.6405 40.051 39.2789 40.051H25.1361C24.7745 40.051 24.4932 39.7698 24.4932 39.4081V38.1224C24.4932 37.7608 24.7745 37.4796 25.1361 37.4796Z" fill="white"/>
<path fill-rule="evenodd" clip-rule="evenodd" d="M16.7789 21.0648C12.6837 21.0648 9.36392 17.745 9.36392 13.6498C9.36392 9.55461 12.6837 6.2348 16.7789 6.2348C20.2229 6.2348 23.1185 8.58277 23.9523 11.7653H36.7075C37.7722 11.7653 39.2588 12.3881 40.0021 13.1314L46.27 19.3992C47.0133 20.1425 47.6361 21.6291 47.6361 22.6939V45.8367C47.6361 46.9015 46.7722 47.7653 45.7075 47.7653H18.7075C17.6428 47.7653 16.7789 46.9015 16.7789 45.8367L16.7789 21.0648ZM19.3504 20.6068C21.9729 19.6371 23.897 17.227 24.1625 14.3367H34.7789V22.6939C34.7789 23.7586 35.6428 24.6224 36.7075 24.6224H45.0646V45.1939H19.3504V20.6068ZM38.174 14.9394C38.0334 14.7988 37.6919 14.618 37.3504 14.4974V22.051H44.9039C44.7834 21.7095 44.6026 21.368 44.462 21.2273L38.174 14.9394ZM17.7789 14.6498H21.7789V12.6498H17.7789V8.64984H15.7789V12.6498H11.7789V14.6498H15.7789V18.6498H17.7789V14.6498Z" fill="white"/>
</g>
</g>
</svg>
