<svg width="56" height="55" viewBox="0 0 56 55" fill="none" xmlns="http://www.w3.org/2000/svg">
<g id="percent">
<path id="&#239;&#138;&#149;" d="M38.2857 35.2143C38.2857 36.6205 37.1205 37.7857 35.7143 37.7857C34.308 37.7857 33.1429 36.6205 33.1429 35.2143C33.1429 33.808 34.308 32.6428 35.7143 32.6428C37.1205 32.6428 38.2857 33.808 38.2857 35.2143ZM22.8571 19.7857C22.8571 21.1919 21.692 22.3571 20.2857 22.3571C18.8795 22.3571 17.7143 21.1919 17.7143 19.7857C17.7143 18.3794 18.8795 17.2143 20.2857 17.2143C21.692 17.2143 22.8571 18.3794 22.8571 19.7857ZM43.4286 35.2143C43.4286 30.9553 39.9732 27.5 35.7143 27.5C31.4554 27.5 28 30.9553 28 35.2143C28 39.4732 31.4554 42.9286 35.7143 42.9286C39.9732 42.9286 43.4286 39.4732 43.4286 35.2143ZM41.5 13.3571C41.5 12.654 40.9174 12.0714 40.2143 12.0714H37C36.5982 12.0714 36.2165 12.2723 35.9754 12.5937L14.7612 40.8794C14.6004 41.1004 14.5 41.3616 14.5 41.6428C14.5 42.346 15.0826 42.9286 15.7857 42.9286H19C19.4018 42.9286 19.7835 42.7277 20.0246 42.4062L41.2388 14.1205C41.3996 13.8995 41.5 13.6384 41.5 13.3571ZM28 19.7857C28 15.5268 24.5446 12.0714 20.2857 12.0714C16.0268 12.0714 12.5714 15.5268 12.5714 19.7857C12.5714 24.0446 16.0268 27.5 20.2857 27.5C24.5446 27.5 28 24.0446 28 19.7857Z" fill="white"/>
</g>
</svg>
