<svg width="56" height="55" viewBox="0 0 56 55" fill="none" xmlns="http://www.w3.org/2000/svg">
<g id="search">
<path id="&#239;&#128;&#130;" d="M34.4286 24.9286C34.4286 29.8906 30.3906 33.9286 25.4286 33.9286C20.4665 33.9286 16.4286 29.8906 16.4286 24.9286C16.4286 19.9665 20.4665 15.9286 25.4286 15.9286C30.3906 15.9286 34.4286 19.9665 34.4286 24.9286ZM44.7143 41.6429C44.7143 40.9598 44.433 40.2969 43.971 39.8348L37.0803 32.9442C38.7076 30.5937 39.5714 27.7812 39.5714 24.9286C39.5714 17.1138 33.2433 10.7857 25.4286 10.7857C17.6138 10.7857 11.2857 17.1138 11.2857 24.9286C11.2857 32.7433 17.6138 39.0714 25.4286 39.0714C28.2812 39.0714 31.0937 38.2076 33.4442 36.5803L40.3348 43.4509C40.7969 43.933 41.4598 44.2143 42.1429 44.2143C43.5491 44.2143 44.7143 43.0491 44.7143 41.6429Z" fill="white"/>
</g>
</svg>
