<svg width="56" height="55" viewBox="0 0 56 55" fill="none" xmlns="http://www.w3.org/2000/svg">
<g id="message">
<path id="&#239;&#128;&#131;" d="M44.9286 38.8571C44.9286 39.1987 44.6272 39.5 44.2857 39.5H14.7143C14.3728 39.5 14.0714 39.1987 14.0714 38.8571V23.4286C14.4933 23.9107 14.9554 24.3527 15.4576 24.7545C18.3304 26.9643 21.2232 29.2143 24.0156 31.5446C25.5223 32.8103 27.3906 34.3571 29.4799 34.3571H29.5H29.5201C31.6094 34.3571 33.4777 32.8103 34.9844 31.5446C37.7768 29.2143 40.6696 26.9643 43.5424 24.7545C44.0446 24.3527 44.5067 23.9107 44.9286 23.4286V38.8571ZM44.9286 17.7433C44.9286 19.4509 43.2813 21.6808 41.9754 22.7053C39.2835 24.8147 36.5915 26.9442 33.9196 29.0737C32.8549 29.9375 30.9263 31.7857 29.5201 31.7857H29.5H29.4799C28.0737 31.7857 26.1451 29.9375 25.0804 29.0737C22.4085 26.9442 19.7165 24.8147 17.0246 22.7053C15.2165 21.279 14.0714 19.2902 14.0714 17C14.0714 16.6585 14.3728 16.3571 14.7143 16.3571H44.2857C45.0491 16.3571 44.9286 17.2411 44.9286 17.7433ZM47.5 17C47.5 15.2321 46.0536 13.7857 44.2857 13.7857H14.7143C12.9464 13.7857 11.5 15.2321 11.5 17V38.8571C11.5 40.625 12.9464 42.0714 14.7143 42.0714H44.2857C46.0536 42.0714 47.5 40.625 47.5 38.8571V17Z" fill="white"/>
</g>
</svg>
