<svg width="56" height="55" viewBox="0 0 56 55" fill="none" xmlns="http://www.w3.org/2000/svg">
<g id="money">
<path id="&#239;&#131;&#150;" d="M24.4286 31.7857V29.8571H27V24.0714H26.9598C26.6384 24.5737 26.3371 24.7946 25.8549 25.2165L24.308 23.6094L27.2812 20.8571H29.5714V29.8571H32.1429V31.7857H24.4286ZM34.7143 26.6428C34.7143 22.9866 32.5045 18.2857 28.2857 18.2857C24.067 18.2857 21.8571 22.9866 21.8571 26.6428C21.8571 30.2991 24.067 35 28.2857 35C32.5045 35 34.7143 30.2991 34.7143 26.6428ZM45 31.7857C42.1674 31.7857 39.8571 34.096 39.8571 36.9286H16.7143C16.7143 34.096 14.404 31.7857 11.5714 31.7857V21.5C14.404 21.5 16.7143 19.1897 16.7143 16.3571H39.8571C39.8571 19.1897 42.1674 21.5 45 21.5V31.7857ZM47.5714 15.0714C47.5714 14.3683 46.9888 13.7857 46.2857 13.7857H10.2857C9.58259 13.7857 9 14.3683 9 15.0714V38.2143C9 38.9174 9.58259 39.5 10.2857 39.5H46.2857C46.9888 39.5 47.5714 38.9174 47.5714 38.2143V15.0714Z" fill="white"/>
</g>
</svg>
