<svg width="830" height="6" viewBox="0 0 830 6" fill="none" xmlns="http://www.w3.org/2000/svg">
<circle cx="81" cy="3" r="3" fill="#C4C4C4"/>
<circle cx="107" cy="3" r="3" fill="#C4C4C4"/>
<circle cx="55" cy="3" r="3" fill="#C4C4C4"/>
<circle cx="29" cy="3" r="3" fill="#C4C4C4"/>
<circle cx="3" cy="3" r="3" fill="#C4C4C4"/>
<circle cx="320.989" cy="3" r="3" fill="#C4C4C4"/>
<circle cx="346.989" cy="3" r="3" fill="#C4C4C4"/>
<circle cx="294.989" cy="3" r="3" fill="#C4C4C4"/>
<circle cx="268.989" cy="3" r="3" fill="#C4C4C4"/>
<circle cx="242.989" cy="3" r="3" fill="#C4C4C4"/>
<circle cx="560.989" cy="3" r="3" fill="#C4C4C4"/>
<circle cx="586.989" cy="3" r="3" fill="#C4C4C4"/>
<circle cx="534.989" cy="3" r="3" fill="#C4C4C4"/>
<circle cx="508.989" cy="3" r="3" fill="#C4C4C4"/>
<circle cx="482.989" cy="3" r="3" fill="#C4C4C4"/>
<circle cx="800.961" cy="3" r="3" fill="#C4C4C4"/>
<circle cx="826.961" cy="3" r="3" fill="#C4C4C4"/>
<circle cx="774.961" cy="3" r="3" fill="#C4C4C4"/>
<circle cx="748.961" cy="3" r="3" fill="#C4C4C4"/>
<circle cx="722.961" cy="3" r="3" fill="#C4C4C4"/>
</svg>
